# xmcd CD database file
# Copyright (C) 1995-1998 Ti Kan
#
# Track frame offsets:
#	151
#	21961
#	46970
#	78214
#	102844
#	120694
#	140662
#	181819
#	204775
#
# Disc length: 3028 seconds
#
# Revision: 1
# Processed by: cddbd v1.4b41PL1 Copyright (c) Steve Scherf et al.
# Submitted via: CDex 1.30
#
DISCID=6d0bd209
DTITLE=The Bill Magee Blues Band - Steppin' Out
DYEAR=1998
DGENRE=Blues
TTITLE0=Listen Girl (I Want To Be Your Lover)
TTITLE1=Girl Stop Teasing Me
TTITLE2=I Got Me A Good Woman
TTITLE3=Steppin' Out
TTITLE4=Help Me
TTITLE5=Next Time You See Me
TTITLE6=Jasper Jam
TTITLE7=Jimmy Read Medley
TTITLE8=Comin' Home
EXTD=\nYEAR: 1998  ID3G:   0
EXTT0=
EXTT1=
EXTT2=
EXTT3=
EXTT4=
EXTT5=
EXTT6=
EXTT7=
EXTT8=
PLAYORDER=
